<svg width="50" height="50" viewBox="0 0 50 50" fill="none" xmlns="http://www.w3.org/2000/svg">
<path d="M25 50C38.8071 50 50 38.8071 50 25C50 11.1929 38.8071 0 25 0C11.1929 0 0 11.1929 0 25C0 38.8071 11.1929 50 25 50Z" fill="url(#paint0_linear_139_555)"/>
<path d="M39.2588 38.0992C38.7302 37.7773 38.3567 37.2759 38.2068 36.6846C38.056 36.0933 38.1466 35.4774 38.4685 34.9396C39.3164 33.4656 39.7459 31.8723 39.7459 30.2044C39.7459 25.2185 35.9003 21.1202 31.0201 20.7042C30.5857 26.251 26.1482 30.599 20.7043 31.0209C21.1207 35.9005 25.2189 39.7459 30.2044 39.7459H38.8785C39.2825 39.7459 39.6324 39.4672 39.7239 39.0733C39.8146 38.6803 39.6214 38.2762 39.2588 38.0992ZM26.7348 31.0718C26.2558 31.0718 25.8674 30.6834 25.8674 30.2044C25.8674 29.7253 26.2558 29.337 26.7348 29.337C27.2138 29.337 27.6022 29.7253 27.6022 30.2044C27.6022 30.6834 27.2138 31.0718 26.7348 31.0718ZM30.2044 31.0718C29.7254 31.0718 29.337 30.6834 29.337 30.2044C29.337 29.7253 29.7254 29.337 30.2044 29.337C30.6834 29.337 31.0718 29.7253 31.0718 30.2044C31.0718 30.6834 30.6834 31.0718 30.2044 31.0718ZM33.674 31.0718C33.195 31.0718 32.8067 30.6834 32.8067 30.2044C32.8067 29.7253 33.195 29.337 33.674 29.337C34.153 29.337 34.5414 29.7253 34.5414 30.2044C34.5414 30.6834 34.153 31.0718 33.674 31.0718ZM29.337 19.7954C29.337 14.5342 25.0568 10.2539 19.7955 10.2539C14.5343 10.2539 10.2539 14.5342 10.2539 19.7954C10.2539 21.4565 10.691 23.0838 11.5178 24.501C12.1709 25.6183 11.7947 27.0643 10.68 27.7225C10.3437 27.9215 10.1819 28.3214 10.2844 28.6983C10.3877 29.0753 10.73 29.337 11.1213 29.337H19.7954C25.0341 29.337 29.337 25.0527 29.337 19.7954ZM16.3258 20.6629C15.8468 20.6629 15.4584 20.2745 15.4584 19.7955C15.4584 19.3164 15.8468 18.9281 16.3258 18.9281C16.8048 18.9281 17.1932 19.3164 17.1932 19.7955C17.1932 20.2744 16.8048 20.6629 16.3258 20.6629ZM19.7954 20.6629C19.3164 20.6629 18.928 20.2745 18.928 19.7955C18.928 19.3164 19.3164 18.9281 19.7954 18.9281C20.2744 18.9281 20.6628 19.3164 20.6628 19.7955C20.6629 20.2744 20.2745 20.6629 19.7954 20.6629ZM23.2652 20.6629C22.7861 20.6629 22.3978 20.2745 22.3978 19.7955C22.3978 19.3164 22.7861 18.9281 23.2652 18.9281C23.7442 18.9281 24.1325 19.3164 24.1325 19.7955C24.1325 20.2744 23.7442 20.6629 23.2652 20.6629Z" fill="url(#paint1_linear_139_555)"/>
<defs>
<linearGradient id="paint0_linear_139_555" x1="25" y1="50" x2="25" y2="0" gradientUnits="userSpaceOnUse">
<stop stop-color="#B6DEF4"/>
<stop offset="1" stop-color="#FFF1FF"/>
</linearGradient>
<linearGradient id="paint1_linear_139_555" x1="25" y1="39.7459" x2="25" y2="10.2539" gradientUnits="userSpaceOnUse">
<stop stop-color="#81ACFF"/>
<stop offset="1" stop-color="#3A71FF"/>
</linearGradient>
</defs>
</svg>
